<svg width="46" height="40" viewBox="0 0 46 40" fill="none" xmlns="http://www.w3.org/2000/svg">
<path d="M36.366 14.7931L34.7243 33.722M11.4595 12.6329L9.81782 31.5619M44.1836 11.4561L41.8507 38.3551L2.00025 34.8989L4.33319 7.99984L44.1836 11.4561ZM23.2012 27.7038C20.7252 27.4891 18.8921 25.3078 19.1069 22.8318C19.3216 20.3559 21.5029 18.5228 23.9789 18.7375C26.4549 18.9522 28.288 21.1335 28.0732 23.6095C27.8585 26.0855 25.6772 27.9186 23.2012 27.7038Z" stroke="#F8821E" stroke-width="3"/>
<path d="M43.1836 2L43.1836 29L3.18359 29L3.18359 2L43.1836 2Z" fill="white"/>
<path d="M23.6836 20C21.1983 20 19.1836 17.9853 19.1836 15.5C19.1836 13.0147 21.1983 11 23.6836 11C26.1689 11 28.1836 13.0147 28.1836 15.5C28.1836 17.9853 26.1689 20 23.6836 20Z" fill="white"/>
<path d="M35.6836 6L35.6836 25M10.6836 6L10.6836 25M43.1836 2L43.1836 29L3.18359 29L3.18359 2L43.1836 2ZM23.6836 20C21.1983 20 19.1836 17.9853 19.1836 15.5C19.1836 13.0147 21.1983 11 23.6836 11C26.1689 11 28.1836 13.0147 28.1836 15.5C28.1836 17.9853 26.1689 20 23.6836 20Z" stroke="#F8821E" stroke-width="3"/>
</svg>
